<svg xmlns="http://www.w3.org/2000/svg" width="742" height="230" viewBox="0 0 742 230"><defs><style>.cls-1{fill:#fff;}</style></defs><title>Asset 2</title><g id="Layer_2" data-name="Layer 2"><g id="Layer_1-2" data-name="Layer 1"><path class="cls-1" d="M70,0c3.09,2.05,6.85,1.81,10.2,3.05,16.55,6.1,26.5,17.76,28.31,35.3C110.1,53.78,106,67.46,92.56,76.94c-4.68,3.29-10,5.12-16.52,6.77L116.42,129H85.81L48.29,86.37H24.74V129C16.19,130.28,8,128.49,0,130V0ZM25,23.05V64c13.94,0,27.59.53,41.18-.17,11.11-.57,18.19-9.45,18-20.67-.17-11-7.74-19.5-18.95-20C51.93,22.64,38.61,23.05,25,23.05Z"/><path class="cls-1" d="M328,0c-1,1.54-.41,3.24-.41,4.85q-.06,59.23,0,118.45V129H306.44l-1.76-11.76c-7.9,10.64-18.42,14.36-30.74,14.08-12.64-.29-23.94-4-33-13.1C224.1,101.42,223.49,67.43,239.58,50,256.11,32.13,284,31.79,305,49.72V0ZM303.19,84.16c.09-15.08-11.43-27-26.11-27-15.43,0-26.23,10.87-26.3,26.44-.07,15.4,11,27,25.9,27S303.1,99.29,303.19,84.16Z"/><path class="cls-1" d="M742,130H714.65L679,88.89v40.86H656V0h23V74.73L709.4,38.6h28.24l-38.31,43L742,128Z"/><path class="cls-1" d="M373,0q-.11,38.49-.22,77c0,10.48,0,21,0,31.81h66.88v22.9H348V0Z"/><path class="cls-1" d="M170,230c-12.08-6.81-16.21-22.69-9.07-34.89,5-8.59,14-10.1,23.91-3.69V171.65c2.37-1.31,4.49-.62,6.86-.66v57.79c-1.79.68-3.57.34-5.56.23l-1.45-3.28c-2.27,2.15-5.08,3-7.7,4.27Zm15-21.18c0-2-.15-4,0-6,.47-5-2.18-7.75-6.65-9.05-4.82-1.4-9.29.23-11.39,4.64a22.88,22.88,0,0,0-.2,20.17c2.06,4.44,6.6,6.28,11.25,5.12s6.93-4.34,7-9.42C185,212.47,185,210.64,185,208.82Z"/><path class="cls-1" d="M20,230C4.25,221-1.41,200.42,7.32,184c4.57-8.56,13.78-12.59,23.72-10.37,8.84,2,14,8.18,14.55,17.84H39.12a24.61,24.61,0,0,1-1-2.82c-1.23-5.48-4.52-8.85-10.14-9.48s-11,1-13.51,6.42a36.09,36.09,0,0,0,.11,32.19c2.61,5.41,7.89,6.8,13.63,6,5.38-.73,8.65-3.87,9.86-9.16.18-.8.45-1.57.72-2.49,2.33-.83,4.56-.32,7-.35C45,221.66,39.25,226.86,31,230Z"/><path class="cls-1" d="M291,230c0-9.17.06-18.33,0-27.5-.06-6.37-2.69-9.31-8-9.24-5.63.08-10,4.16-10,9.53-.05,8.63,0,17.26,0,26.12h-6.6V171.15h6.44v21.21c3.26-2,5.77-4.1,9.07-4.7,9.19-1.68,15.41,2.81,15.88,12.4.43,8.81,0,17.66.27,26.49.05,1.94-1.44,2.28-2.06,3.45Z"/><path class="cls-1" d="M382,230c-.36-1.15-1.54-1.16-2.36-1.62-4.5-2.5-6.84-6.25-6.52-11.42.32-5.36,3.25-8.94,8.15-10.93,5.21-2.12,10.75-1.73,16.16-2,1.18-5.9-.21-9.13-4.44-10.59-5-1.74-9.7.4-12.7,5.87h-5.89c.37-7.11,7.21-12.19,16.07-12.07,9.24.13,14.37,5.36,14.62,14.62.23,8.3-.88,16.65.86,24.89.28,1.31-.55,2.16-.95,3.2h-6c-.05-1.44.16-2.95-1.27-4.39-2.25,2-5.07,3-7.73,4.39Zm15.51-20.62a30.76,30.76,0,0,0-11.19.62c-4.57,1.1-6.9,4.21-6.23,8.11s4.71,6.56,9.14,5.57C396.37,222.08,399.72,219.26,397.51,209.38Z"/><path class="cls-1" d="M588,230c-11.94-8.14-15.29-16-12.09-28.33,2.4-9.29,10-15.16,18.39-14.27,9,.95,14.14,6.81,14.83,17,.13,1.95,0,3.91,0,6.25H582.64c-.5,5.83,1.83,10.47,6.45,12.41,5.95,2.5,11,.79,15.28-3.94a6,6,0,0,1,4.08,3.19C606.23,226.7,602,228.19,598,230Zm-5.45-25.35h19.52c-.17-7.39-3.4-11.41-9.05-11.55S583.5,197.14,582.55,204.65Z"/><path class="cls-1" d="M711,230c-12-7.09-15.92-16.13-12.5-28.49,2.52-9.08,9.87-14.86,18-14.15,9,.77,14.28,6.52,15.3,16.67.2,2,0,4,0,6.55H705c-.38,5.9,1.67,10.09,6.4,12.35,6,2.89,11.29.92,15.63-3.86a8,8,0,0,1,4,3c-1.76,4.68-6.38,5.69-10,7.93Zm13.78-25.27c-.21-7.47-3.73-11.72-9.52-11.65s-10.06,5.11-9.75,11.65Z"/><path class="cls-1" d="M522,230c-12.11-7.21-16.06-16.49-12.32-29,2.65-8.85,9.86-14.37,17.87-13.67,8.8.76,14,6.26,15.24,16.18a63.91,63.91,0,0,1,0,7H516c-.35,5.9,1.69,10.09,6.42,12.35,6,2.88,11.29.91,15.63-3.88a8,8,0,0,1,4,3c-1.77,4.68-6.39,5.69-10,7.93Zm-5.89-25.41h19.76c-.55-7.38-3.55-11.15-8.91-11.48C521.22,192.75,517.25,196.84,516.11,204.59Z"/><path class="cls-1" d="M345,230c-11.94-7.55-15.67-16.29-12.21-28.6,2.62-9.33,10.12-15,18.55-14,9.07,1.1,14.21,7.28,14.68,17.69.07,1.65,0,3.3,0,5.52H339c0,5.81,1.92,10.1,6.74,12.32,6.07,2.79,11.32.85,15.56-4a7.57,7.57,0,0,1,3.89,3.23c-1.88,4.61-6.45,5.66-10.18,7.78Zm-5.68-25.33H358.9c-.11-7.31-3.41-11.42-9.07-11.58S340.23,197.16,339.32,204.67Z"/><path class="cls-1" d="M85,230c-11.5-6.9-15-14-13-26.6,1.43-9.19,8.18-15.59,17-16.1s16.24,5,18.53,14.14a28.74,28.74,0,0,1-.74,17.15c-2.22,6.07-7,9.23-12.74,11.41Zm-6.49-21a47.21,47.21,0,0,0,.73,6c1.35,5.61,5.31,9,10.35,9.15,5.45.16,9.51-2.93,11-8.88a23.76,23.76,0,0,0-.37-14.23c-1.77-4.81-5-7.77-10.34-7.88-4.74-.1-8.27,2.88-10.19,8.05C78.81,203.58,78.89,206.07,78.51,209Z"/><path class="cls-1" d="M618,230c-1.25-5.38-.51-10.83-.59-16.25-.13-8.46,0-16.91,0-25.54h6c1.52.8-.12,2.89,1.67,4a16.75,16.75,0,0,1,10.47-4.84c7.37-.58,13,3.59,13.41,10.94.52,9.47.15,19,.43,28.46.06,2.08-1.75,2.06-2.33,3.26h-4c-1.49-2.06-1-4.4-.93-6.67.05-7.45.15-14.91.15-22.36,0-4.5-2.29-7.15-6.81-7.65a9.94,9.94,0,0,0-11.11,9.89c-.12,8.93-.2,17.85-.3,26.78Z"/><path class="cls-1" d="M669,230c-4.27-2.7-9.14-4.81-10.47-10.45-.18-.77-.29-1.57-.44-2.35,2.16-1,4.15-.45,6.07-.55,3.94,6.82,7.2,8.64,13.46,7.23,2.64-.59,5.17-1.62,5.56-4.89s-1.39-5.36-4.4-6.34c-3.79-1.23-7.67-2.18-11.41-3.52-4.56-1.63-7.83-4.58-7.77-9.84s3.07-8.63,7.77-10.58c10.16-4.2,22.51,1.27,22.43,10.87-1.93,1.06-4.08.16-6,.59-3.41-6.35-7.51-8.33-12.86-6.49-2.61.9-4.36,2.47-4.42,5.36s1.73,4.2,4.14,4.94c3.33,1,6.73,1.84,10,3,6.57,2.24,9.39,5.52,9.48,10.71.09,5.59-2.46,8.69-9.28,11.37-.37.14-.6.63-.9,1Z"/><path class="cls-1" d="M125,230c-6.81-4.34-8.39-10.83-8.07-18.42s.07-15.27.07-23.09c2.24-.77,4.32-.45,7-.27,0,8.85-.08,17.61,0,26.37.1,8.27,5.59,11.75,13,8.29,3.22-1.5,5.11-3.86,5-7.79-.19-8.8-.06-17.6-.06-26.39,2.21-1.32,4.33-.31,7-.81,0,13.49,0,26.57.05,39.66,0,1.64-2,1.15-2,2.44h-5a5.63,5.63,0,0,0-.55-4.27c-1.88,2.65-5,2.78-7.45,4.27Z"/><path class="cls-1" d="M555,230c-1.32-7.38-.37-14.82-.6-22.24-.14-4.47,0-8.94,0-13.21-1.93-1.8-4.2-.37-6-1.49a7.06,7.06,0,0,1,.13-5h5.58c.67-5.91,0-12.18,5.67-15.87a14.69,14.69,0,0,1,12-1.68c1.3,1.81.24,3.55.33,5.26-9.46.71-11.11,2.59-10.46,11.77,2.48,1.12,5.21,0,7.91.73,1,1.44.25,3.07.46,4.61-2.65,1.39-5.46,0-9,1.52V230Z"/><path class="cls-1" d="M424,230c-4.47-2.94-5.68-7.33-5.64-12.36.06-7.79,0-15.58,0-23.21-2.36-1.71-4.93-.17-7.17-1.46v-4.4c2-1.24,4.52,0,7.17-1v-9.36h6.78v9.58l7.29.33c.88,1.7.55,3.3.22,5.09l-7.25.61c.16,9.76-.82,19.3.54,28.2,2.24,2.33,4.49,1.84,6.62,1.79A6.14,6.14,0,0,1,432,230Z"/><path class="cls-1" d="M55,230q.13-26.65.25-53.31c0-1.79,0-3.58,0-5.24,2.41-.88,4.36-.57,6.33-.41,1.13,1.7.57,3.58.58,5.34.05,16.12,0,32.23.06,48.35,0,2.17,0,4.15-2.23,5.27Z"/><path class="cls-1" d="M308,230V188.31l5.93-.32c1.87.83.44,2.65,1.81,3.67,3.25-3.29,7-5.31,12-3.77V194c-1.69.07-3.17,0-4.62.22-5.19.69-7.9,3.77-7.93,9,0,7.31-.06,14.63,0,21.94,0,2-.14,3.8-2.19,4.8Z"/><path class="cls-1" d="M214.87,92H143.7c.76,10.35,9.8,18,22.09,19,11.52.91,19.35-1.16,29.45-7.88l13.36,14.5c-2.93,3.78-7.68,6.41-12.64,8.63a61.92,61.92,0,0,1-42.89,3.37c-17.79-4.93-28.93-16.62-32.21-34.95s-.15-34.94,14.5-47.76c15.78-13.81,45-15.22,62.17-3.24,11.41,7.94,16,19.62,17.27,32.88C215.25,81.48,214.87,86.47,214.87,92ZM144.26,72.72c5.87.92,44.76.67,48.34-.32-2.32-11.25-10-16.72-23.51-16.69C156,55.74,146.37,62.36,144.26,72.72Z"/><path class="cls-1" d="M548.1,84.07a48,48,0,0,1-48.19,47.68c-26.46-.24-48-21.89-47.82-48.16a48,48,0,0,1,96,.48ZM486.77,72.91c-7,1.86-7.45,2.42-7.46,10,0,6.67,0,13.33,0,20,0,4.46,2.1,6.88,6.65,6.9,9.5,0,19,0,28.5,0,4.51,0,6.61-2.4,6.54-7-.1-6.16,0-12.33,0-18.5,0-8.83,0-8.83-7.7-11.79-.61-11.35-4.56-16.74-12.57-17.14C492.47,55,488.11,60.45,486.77,72.91Z"/><path class="cls-1" d="M643.49,49.94,629.67,64.73c-15.75-9.88-29.75-9-38.8,2.13-8.56,10.56-8.23,27.62.72,37.3,9.38,10.14,25.37,10.42,39,.65L645,120c-16.19,18.19-50.76,19.07-69.28,1.16-18.36-17.75-18.4-54.35-.09-72.15C593.69,31.38,627.08,31.72,643.49,49.94Z"/><path class="cls-1" d="M461.34,174.09c6.55,0,12.89-.56,19.1.13,9.22,1,15.57,6.43,18.46,15.29a38.6,38.6,0,0,1,0,24c-2.84,8.92-9.3,14.2-18.48,15.24-6.2.7-12.55.13-19.1.13Zm7.17,6v42.6c11.1,1.53,18.11-.28,21.55-6.65a29.8,29.8,0,0,0,.32-28.66C485.85,178.53,477,179.72,468.51,180.11Z"/><path class="cls-1" d="M258.86,174.16v5.65H241.59v48.62c-2.44,1.14-4.55.72-7.19.43V179.93H217.21v-5.76Z"/><path class="cls-1" d="M507.71,73.24h-15c-.82-4.11-.85-7.93,2.56-10.87a7.17,7.17,0,0,1,8.38-.88C508.24,63.92,508.36,68.24,507.71,73.24Z"/><path class="cls-1" d="M497.86,91.34c-1.63-1.95-3.05-4.23-1.34-7a4.07,4.07,0,0,1,4.25-2c2.61.46,3.95,2.2,4.14,5.17l-2.23,4.16,1.78,8.27a22.51,22.51,0,0,1-8.22.27C495.89,97.26,497.56,94.78,497.86,91.34Z"/></g></g></svg>